<?xml version="1.0" encoding="utf-8"?>
<svg role="img" viewBox="0 0 24 24" xmlns="http://www.w3.org/2000/svg">
	<title>Jovian</title>
	<circle cx="12" cy="12" r="12" fill="#0D61FF"></circle>
	<path d="M20.25 1.65C20.25.74 19.51 0 18.6 0H5.4c-.91 0-1.65.74-1.65 1.65v20.7c0 .91.74 1.65 1.65 1.65h13.2c.91 0 1.65-.74 1.65-1.65V1.65zm-5.275 4.341a1.5 1.5 0 1 1 0 3 1.5 1.5 0 0 1 0-3zm.04 9.018a1.5 1.5 0 1 1 0 3 1.5 1.5 0 0 1 0-3zm-6.015 0a1.5 1.5 0 1 1 0 3 1.5 1.5 0 0 1 0-3z" transform="translate(4.8, 4.8) scale(0.6)" fill="white"></path>
</svg>