<?xml version="1.0" encoding="utf-8"?>
<svg role="img" viewBox="0 0 24 24" xmlns="http://www.w3.org/2000/svg">
	<title>MonoGame</title>
	<circle cx="12" cy="12" r="12" fill="#E73C00"></circle>
	<path d="M24 10.356V7.083a7.083 7.083 0 0 0-12-5.098A7.083 7.083 0 0 0 0 7.083v9.834A7.083 7.083 0 0 0 7.083 24h9.834a7.083 7.083 0 0 0 7.07-7.51H24v-4.332H9.834v4.332h9.834v.427a2.751 2.751 0 0 1-2.751 2.751H7.083a2.751 2.751 0 0 1-2.751-2.751V7.083a2.751 2.751 0 1 1 5.502 0v3.273h4.332V7.083a2.751 2.751 0 1 1 5.502 0v3.273z" transform="translate(4.8, 4.8) scale(0.6)" fill="white"></path>
</svg>