<?xml version="1.0" encoding="utf-8"?>
<svg role="img" viewBox="0 0 24 24" xmlns="http://www.w3.org/2000/svg">
	<title>OpenMined</title>
	<circle cx="12" cy="12" r="12" fill="#ED986C"></circle>
	<path d="M12 0c-.486 0-.972.242-1.25.725L7.082 7.082.725 10.75a1.44 1.44 0 000 2.5l6.357 3.668 3.668 6.357a1.44 1.44 0 002.5 0l3.668-6.357 6.357-3.668c.967-.544.967-1.945 0-2.5l-6.357-3.668L13.25.725A1.429 1.429 0 0012 0zm.006 4.237l7.757 7.769-7.769 7.757-7.757-7.757zm-.012 3.112l-4.656 4.657 4.656 4.656 4.657-4.656z" transform="translate(4.8, 4.8) scale(0.6)" fill="white"></path>
</svg>