<?xml version="1.0" encoding="utf-8"?>
<svg role="img" viewBox="0 0 24 24" xmlns="http://www.w3.org/2000/svg">
	<title>Roots Bedrock</title>
	<circle cx="12" cy="12" r="12" fill="#525DDC"></circle>
	<path d="M.4 0L0 .4v5.2l.343.343 11.314-1.886L12 4.4V8l11.52-1.92.48-.48V.4l-.4-.4zm.08 9.92L0 10.4v3.2l.343.343L12 12V8zM12 12v4l11.52-1.92.48-.48v-3.2l-.343-.343zM.48 17.92L0 18.4v5.2l.4.4h23.2l.4-.4v-5.2l-.343-.343-11.314 1.886L12 19.6V16L.48 17.92z" transform="translate(4.8, 4.8) scale(0.6)" fill="white"></path>
</svg>