<?xml version="1.0" encoding="utf-8"?>
<svg role="img" viewBox="0 0 24 24" xmlns="http://www.w3.org/2000/svg">
	<title>data.ai</title>
	<circle cx="12" cy="12" r="12" fill="#000000"></circle>
	<path d="M8.12 1.744.015 10.009 0 10.023l11.986 12.219.014.015 11.986-12.22.014-.014-8.115-8.273-.006-.006Zm1.207 1.02h5.326L11.99 5.41zm3.422 3.43 3.027-3.053L22.081 9.5h-6.054ZM8.211 3.14l3.04 3.072L7.999 9.5h-6.08Zm.62 6.977L12 6.876l3.169 3.242L12 19.842zm7.328.402h5.862l-8.793 9.005Zm-14.24 0h5.915l2.958 9.006Z" transform="translate(4.8, 4.8) scale(0.6)" fill="white"></path>
</svg>