<?xml version="1.0" encoding="utf-8"?>
<svg role="img" viewBox="0 0 24 24" xmlns="http://www.w3.org/2000/svg">
	<title>Formspree</title>
	<circle cx="12" cy="12" r="12" fill="#E5122E"></circle>
	<path d="M1.333 2a2 2 0 0 1 2-2h17.334a2 2 0 0 1 2 2v2.857a2 2 0 0 1-2 2H3.333a2 2 0 0 1-2-2zm0 8.571a2 2 0 0 1 2-2h17.334a2 2 0 0 1 2 2v2.858a2 2 0 0 1-2 2H3.333a2 2 0 0 1-2-2zm2 6.572a2 2 0 0 0-2 2V22a2 2 0 0 0 2 2h8a2 2 0 0 0 2-2v-2.857a2 2 0 0 0-2-2z" transform="translate(4.8, 4.8) scale(0.6)" fill="white"></path>
</svg>