<?xml version="1.0" encoding="utf-8"?>
<svg role="img" viewBox="0 0 24 24" xmlns="http://www.w3.org/2000/svg">
	<title>GoCD</title>
	<circle cx="12" cy="12" r="12" fill="#94399E"></circle>
	<path d="M18.043 13.237l-8.907 5.935a1.47 1.47 0 01-.823.25 1.449 1.449 0 01-.696-.173 1.48 1.48 0 01-.784-1.308V12a1.482 1.482 0 112.957 0v3.163L14.537 12 7.478 7.304A1.49 1.49 0 119.13 4.823l8.913 5.94a1.492 1.492 0 010 2.474M12 0a12 12 0 1012 12A12.012 12.012 0 0012 0" transform="translate(4.8, 4.8) scale(0.6)" fill="white"></path>
</svg>