<?xml version="1.0" encoding="utf-8"?>
<svg role="img" viewBox="0 0 24 24" xmlns="http://www.w3.org/2000/svg">
	<title>Rarible</title>
	<circle cx="12" cy="12" r="12" fill="#FEDA03"></circle>
	<path d="M4.8 0A4.79 4.79 0 000 4.8v14.4A4.79 4.79 0 004.8 24h14.4a4.79 4.79 0 004.8-4.8V4.8A4.79 4.79 0 0019.2 0zm1.32 7.68h8.202c2.06 0 3.666.44 3.666 2.334 0 1.137-.671 1.702-1.427 1.898.904.268 1.558 1 1.558 2.16v2.131h-3.451V14.18c0-.62-.37-.87-1-.87H9.572v2.893H6.12zm3.452 2.5v.834h4.155c.452 0 .726-.06.726-.416 0-.358-.274-.418-.726-.418z" transform="translate(4.8, 4.8) scale(0.6)" fill="white"></path>
</svg>