<?xml version="1.0" encoding="utf-8"?>
<svg role="img" viewBox="0 0 24 24" xmlns="http://www.w3.org/2000/svg">
	<title>Ruff</title>
	<circle cx="12" cy="12" r="12" fill="#D7FF64"></circle>
	<path d="M3 0C1.338 0 0 1.338 0 3v18c0 1.662 1.338 3 3 3h18c1.662 0 3-1.338 3-3V3c0-1.662-1.338-3-3-3Zm4.2 7.2h8.641c.53 0 .959.43.959.959v3.266c0 .53-.43.959-.959.959h-.961v.768h1.92V16.8h-4.416v-2.88h-.768v2.88H7.2Zm3.648 3.648v.768h2.304v-.768z" transform="translate(4.8, 4.8) scale(0.6)" fill="white"></path>
</svg>